<svg id="visual" viewBox="0 0 900 600" width="900" height="600" xmlns="http://www.w3.org/2000/svg" xmlns:xlink="http://www.w3.org/1999/xlink" version="1.1"><path d="M0 25L75 28C150 31 300 37 450 37C600 37 750 31 825 28L900 25L900 0L825 0C750 0 600 0 450 0C300 0 150 0 75 0L0 0Z" fill="#e5f4fa"></path><path d="M0 157L75 144C150 131 300 105 450 97C600 89 750 99 825 104L900 109L900 23L825 26C750 29 600 35 450 35C300 35 150 29 75 26L0 23Z" fill="#e3f3f9"></path><path d="M0 169L75 160C150 151 300 133 450 136C600 139 750 163 825 175L900 187L900 107L825 102C750 97 600 87 450 95C300 103 150 129 75 142L0 155Z" fill="#e0f2f9"></path><path d="M0 199L75 193C150 187 300 175 450 179C600 183 750 203 825 213L900 223L900 185L825 173C750 161 600 137 450 134C300 131 150 149 75 158L0 167Z" fill="#def1f8"></path><path d="M0 271L75 255C150 239 300 207 450 204C600 201 750 227 825 240L900 253L900 221L825 211C750 201 600 181 450 177C300 173 150 185 75 191L0 197Z" fill="#dcf0f8"></path><path d="M0 283L75 269C150 255 300 227 450 222C600 217 750 235 825 244L900 253L900 251L825 238C750 225 600 199 450 202C300 205 150 237 75 253L0 269Z" fill="#d9eff7"></path><path d="M0 307L75 293C150 279 300 251 450 246C600 241 750 259 825 268L900 277L900 251L825 242C750 233 600 215 450 220C300 225 150 253 75 267L0 281Z" fill="#d6edf7"></path><path d="M0 403L75 373C150 343 300 283 450 264C600 245 750 267 825 278L900 289L900 275L825 266C750 257 600 239 450 244C300 249 150 277 75 291L0 305Z" fill="#d1ebf6"></path><path d="M0 421L75 392C150 363 300 305 450 290C600 275 750 303 825 317L900 331L900 287L825 276C750 265 600 243 450 262C300 281 150 341 75 371L0 401Z" fill="#cde9f5"></path><path d="M0 583L75 548C150 513 300 443 450 403C600 363 750 353 825 348L900 343L900 329L825 315C750 301 600 273 450 288C300 303 150 361 75 390L0 419Z" fill="#c8e7f4"></path><path d="M0 589L75 586C150 583 300 577 450 579C600 581 750 591 825 596L900 601L900 341L825 346C750 351 600 361 450 401C300 441 150 511 75 546L0 581Z" fill="#c4e5f3"></path><path d="M0 601L75 601C150 601 300 601 450 601C600 601 750 601 825 601L900 601L900 599L825 594C750 589 600 579 450 577C300 575 150 581 75 584L0 587Z" fill="#bfe3f2"></path></svg>